<svg width="236" height="236" viewBox="0 0 236 236" fill="none" xmlns="http://www.w3.org/2000/svg">
<rect width="236" height="236" rx="20" fill="black"/>
<path d="M155.82 49.5967C176.196 47.2605 192.722 51.9149 203.057 61.1523C213.353 70.356 217.651 84.2387 213.364 100.763V100.764C211.709 107.148 209.861 111.533 203.651 118.829C197.385 126.192 186.729 136.458 167.445 154.573L133.568 186.402H21.001C21.0074 159.916 21.0785 142.214 21.1895 130.773C21.3022 119.152 21.4554 114.055 21.6113 112.752C21.7719 111.419 21.8767 110.848 22.2637 110.425C22.6539 109.998 23.513 109.553 25.7734 109.224C30.2472 108.571 39.1195 108.483 57.1143 108.31C74.2405 108.141 83.3033 108.03 88.6885 107.708C93.4517 107.423 95.4172 106.968 97.5469 106.151L98.4775 105.779C113.249 99.6938 112.585 80.0206 97.5 74.6982C95.042 73.827 92.8667 73.3628 87.4482 73.1123C82.0576 72.8631 73.3747 72.8223 57.8779 72.8223C47.136 72.8223 38.5493 72.7336 32.6025 72.5703C29.6272 72.4886 27.3246 72.3881 25.7471 72.2725C25.274 72.2378 24.8735 72.201 24.5439 72.165C24.9676 71.5727 25.6106 70.7702 26.4414 69.8047C28.1837 67.78 30.6867 65.1044 33.5264 62.2676L43.6094 52.1982C75.1586 51.9088 92.2847 51.9849 103.044 53.0684C108.431 53.6108 112.179 54.403 115.316 55.5107C118.452 56.6175 121.022 58.0545 124.058 59.9443C133.104 65.5758 138.117 74.0683 138.953 83.0566C139.79 92.049 136.452 101.619 128.628 109.4C126.963 111.054 125.509 112.64 124.508 113.868C124.011 114.477 123.605 115.024 123.34 115.461C123.212 115.672 123.087 115.907 123.012 116.137C122.975 116.25 122.931 116.418 122.934 116.613C122.937 116.814 122.994 117.135 123.262 117.402C123.426 117.566 123.78 117.821 124.153 118.08C124.567 118.368 125.119 118.739 125.767 119.166C127.063 120.022 128.762 121.114 130.551 122.238H130.552C132.97 123.754 134.684 124.826 135.795 125.766C136.904 126.704 137.161 127.306 137.13 127.846C137.091 128.507 136.62 129.449 135.291 131.026C133.996 132.563 132.063 134.51 129.425 137.176C126.241 140.389 123.856 142.784 122.025 144.467C120.158 146.184 118.992 147.038 118.229 147.322C117.883 147.451 117.729 147.42 117.666 147.398C117.594 147.373 117.452 147.293 117.249 146.99C116.808 146.329 116.412 145.141 115.836 143.266C114.905 140.233 113.825 137.73 112.203 135.722C110.565 133.693 108.425 132.231 105.48 131.187C99.689 129.133 90.6105 128.65 75.6475 128.65C68.8477 128.65 63.8088 128.492 60.1787 128.657C56.5901 128.821 54.0018 129.3 52.3301 130.867C50.6382 132.453 50.1209 134.925 49.9453 138.305C49.7683 141.714 49.9365 146.453 49.9365 152.818C49.9365 158.909 49.9171 163.481 50.043 166.778C50.1059 168.428 50.2055 169.79 50.3691 170.882C50.53 171.955 50.7648 172.858 51.1465 173.531C51.5557 174.253 52.1693 174.761 53.0156 174.865C53.7691 174.958 54.5461 174.705 55.2773 174.357C56.7395 173.663 58.6763 172.25 61.1006 170.55C64.9891 167.831 66.7678 166.6 70.2988 165.965C73.9583 165.306 79.4408 165.302 90.7002 165.302C98.4466 165.302 104.094 165.426 108.668 165.113C113.281 164.798 116.888 164.035 120.594 162.23C124.274 160.438 127.997 157.644 132.882 153.363C137.767 149.082 143.886 143.25 152.339 135.348C167.829 120.872 176.24 112.774 180.655 106.786C182.883 103.765 184.135 101.228 184.761 98.6348C185.383 96.0539 185.366 93.4882 185.166 90.4658V90.4648C184.764 84.4547 182.565 79.959 178.224 77.0146C173.948 74.1148 167.738 72.8223 159.525 72.8223C157.485 72.8223 155.999 72.822 154.864 72.7549C153.721 72.6872 153.048 72.5551 152.589 72.3525C152.178 72.1713 151.881 71.9075 151.562 71.4102C151.215 70.8678 150.885 70.1206 150.387 68.9834C149.347 66.5955 146.698 62.2994 144.32 59.0654L143.849 58.4336C142.493 56.6426 141.69 55.3436 141.401 54.3701C141.264 53.9057 141.264 53.5817 141.327 53.3447C141.387 53.1186 141.528 52.877 141.847 52.6143C142.54 52.0421 143.903 51.5037 146.271 50.998C148.597 50.5015 151.731 50.0656 155.82 49.5967Z" fill="white" stroke="black" stroke-width="2"/>
<path d="M220.09 164.315V186.402H154.937L178.942 163.385L220.09 164.315Z" fill="white" stroke="black" stroke-width="2"/>
</svg>
