<svg width="493" height="139" viewBox="0 0 493 139" fill="none" xmlns="http://www.w3.org/2000/svg">
<path d="M137.888 1.5957C158.582 -0.73451 175.368 3.90764 185.864 13.1221C196.319 22.3002 200.678 36.1378 196.328 52.6055C194.648 58.9692 192.773 63.3402 186.469 70.6152C180.107 77.9571 169.287 88.1939 149.71 106.257L115.311 138H1.00098C1.0075 111.592 1.07975 93.9425 1.19238 82.5352C1.30681 70.9461 1.46293 65.8654 1.62109 64.5674C1.78406 63.2386 1.88952 62.6736 2.28125 62.2529C2.68054 61.8242 3.55904 61.38 5.85645 61.0508C10.4012 60.3996 19.4123 60.3109 37.6797 60.1377H37.6807C55.0686 59.9699 64.2682 59.86 69.7344 59.5391C75.2573 59.2148 77.0709 58.6683 79.6631 57.6172L79.6621 57.6162C87.1051 54.6046 90.7355 48.1947 90.5293 41.8311C90.3231 35.4697 86.2874 29.2562 78.6729 26.6172H78.6738C76.181 25.7491 73.9763 25.2868 68.4756 25.0371C63.0038 24.7887 54.1897 24.748 38.4561 24.748C27.5501 24.748 18.8319 24.6589 12.7939 24.4961C9.77294 24.4146 7.43441 24.3146 5.83203 24.1992C5.34922 24.1645 4.94061 24.1279 4.60449 24.0918C5.03459 23.5025 5.68465 22.7072 6.52246 21.751C8.29133 19.732 10.8318 17.0631 13.7148 14.2344L23.958 4.18945C55.9946 3.90078 73.3868 3.97595 84.3135 5.05664C89.7842 5.59772 93.5918 6.38768 96.7803 7.49316C99.9659 8.59768 102.577 10.0315 105.659 11.916C114.848 17.5342 119.934 26.0026 120.782 34.957C121.631 43.9153 118.246 53.4553 110.302 61.2148C108.611 62.8631 107.135 64.4443 106.119 65.6689C105.615 66.2763 105.202 66.8221 104.933 67.2578C104.803 67.4682 104.675 67.7027 104.599 67.9336C104.561 68.0472 104.516 68.2182 104.519 68.416C104.522 68.6208 104.581 68.9449 104.854 69.2109C105.02 69.3735 105.378 69.626 105.757 69.8848C106.177 70.1718 106.737 70.5417 107.395 70.9678C108.711 71.8208 110.435 72.9093 112.251 74.0303L112.252 74.0312C114.707 75.5424 116.449 76.6109 117.577 77.5488C118.707 78.4877 118.962 79.0852 118.931 79.6133C118.892 80.2662 118.417 81.2026 117.066 82.7773C116.08 83.9266 114.73 85.3065 112.986 87.0459L111.11 88.9102C107.878 92.1141 105.456 94.5023 103.598 96.1807C101.702 97.8923 100.516 98.7458 99.7363 99.0312C99.3819 99.161 99.2173 99.1323 99.1445 99.1074C99.065 99.0801 98.9193 98.996 98.7148 98.6953C98.3794 98.2019 98.0691 97.4134 97.6885 96.2607L97.2803 94.9844C96.3348 91.9594 95.2385 89.4632 93.5918 87.46C91.9289 85.4372 89.7582 83.9811 86.7734 82.9414C80.8995 80.8954 71.6887 80.4141 56.4961 80.4141C49.5906 80.4141 44.4765 80.2559 40.792 80.4209C37.1504 80.584 34.532 81.0611 32.8398 82.6191C31.1217 84.2011 30.5954 86.6693 30.417 90.042C30.2372 93.4423 30.4082 98.1693 30.4082 104.516C30.4082 110.589 30.3878 115.148 30.5156 118.437C30.5796 120.082 30.6814 121.44 30.8477 122.529C31.0112 123.601 31.2492 124.504 31.6377 125.177C32.055 125.9 32.6766 126.399 33.5234 126.501C34.2789 126.592 35.0608 126.343 35.8027 125.997C37.2853 125.305 39.2504 123.898 41.7129 122.202L41.7119 122.201C45.658 119.491 47.4681 118.262 51.0596 117.627C54.7785 116.97 60.3487 116.966 71.7783 116.966C79.6442 116.966 85.3756 117.089 90.0176 116.777C94.6975 116.463 98.3554 115.703 102.114 113.905C105.848 112.119 109.627 109.335 114.587 105.066C119.546 100.798 125.757 94.9825 134.339 87.1035C150.065 72.6692 158.605 64.5958 163.088 58.625C165.35 55.6124 166.621 53.0818 167.257 50.4932C167.889 47.9168 167.872 45.356 167.669 42.3418V42.3408C167.26 36.3407 165.024 31.8572 160.62 28.9238C156.284 26.0359 149.986 24.748 141.652 24.748C139.581 24.748 138.072 24.7477 136.919 24.6807C135.757 24.6131 135.068 24.4814 134.598 24.2773C133.858 23.9567 133.495 23.4107 132.719 21.7158L132.358 20.916C131.233 18.3753 128.246 13.6696 125.719 10.3945C124.342 8.60814 123.529 7.31365 123.236 6.3457C123.097 5.8845 123.099 5.56579 123.161 5.33398C123.221 5.1124 123.363 4.87213 123.688 4.6084C124.396 4.03511 125.785 3.49757 128.19 2.99316C130.553 2.49771 133.736 2.06327 137.888 1.5957Z" fill="white" stroke="black" stroke-width="2"/>
<path d="M247.21 89.9639H226.15C218.203 89.7165 217.028 91.9121 222.625 96.5508C232.645 105.333 237.562 113.868 237.376 122.156C237.19 130.444 232.273 135.392 222.625 137H164.178V117.054H201.102C209.853 117.301 210.966 114.858 204.441 109.725C193.68 99.8288 189.103 90.737 190.711 82.4492C192.319 74.1615 197.391 70.0176 205.926 70.0176H247.21V89.9639ZM296.658 70.0176V89.9639H275.413V137H253.611V89.9639H232.366V70.0176H296.658ZM284.69 89.9639V70.0176H340.911L363.316 137H337.989L333.768 124.939H313.868L309.646 137H285.618L298.746 96.9219H319.991L314.749 111.395H333.211L326.067 89.9639H284.69ZM381.824 103.462C382.072 107.05 382.876 109.756 384.236 111.58C385.597 113.405 387.221 114.858 389.107 115.94C390.993 116.992 393.854 117.75 397.688 118.213H408.357V137H397.503C390.576 136.598 385.334 135.593 381.778 133.985C378.222 132.346 374.696 130.181 371.202 127.491C367.738 124.8 365.017 121.445 363.038 117.425C361.089 113.374 360.115 108.72 360.115 103.462C360.115 98.2052 361.089 93.5666 363.038 89.5464C365.017 85.4953 367.738 82.1245 371.202 79.4341C374.696 76.7437 378.222 74.5944 381.778 72.9863C385.334 71.3473 390.576 70.3577 397.503 70.0176H408.357V88.7114H397.688C393.854 89.1753 390.993 89.9484 389.107 91.0308C387.221 92.0822 385.597 93.5202 384.236 95.3447C382.876 97.1693 382.072 99.8752 381.824 103.462ZM433.777 70.0176V91.8193L449.085 70.0176H470.887L445.931 103.509L451.497 110.281C455.208 114.796 460.032 117.054 465.97 117.054H492.874V137H460.867C454.064 137 447.848 133.676 442.22 127.027L433.777 117.054V137H411.976V70.0176H433.777Z" fill="white"/>
<path d="M137.231 137.002L163.905 117.002L207.372 117.771V137.002H137.231Z" fill="white"/>
<rect x="165.694" y="117.002" width="43.7107" height="20" fill="white"/>
</svg>
